HIERARCHY
ROOT hip
{
  OFFSET 0 0 0
  CHANNELS 6 Xposition Yposition Zposition Zrotation Yrotation Xrotation
  JOINT abdomen
  {
    OFFSET 0 20.6881 -0.73152
    CHANNELS 3 Zrotation Xrotation Yrotation
    JOINT chest
    {
      OFFSET 0 11.7043 -0.48768
      CHANNELS 3 Zrotation Xrotation Yrotation
      JOINT neck
      {
        OFFSET 0 22.1894 -2.19456
        CHANNELS 3 Zrotation Xrotation Yrotation
        JOINT head
        {
          OFFSET -0.24384 7.07133 1.2192
          CHANNELS 3 Zrotation Xrotation Yrotation
          JOINT leftEye
          {
            OFFSET 4.14528 8.04674 8.04672
            CHANNELS 3 Zrotation Xrotation Yrotation
            End Site
            {
              OFFSET 1 0 0
            }
          }
          JOINT rightEye
          {
            OFFSET -3.6576 8.04674 8.04672
            CHANNELS 3 Zrotation Xrotation Yrotation
            End Site
            {
              OFFSET 1 0 0
            }
          }
        }
      }
      JOINT rCollar
      {
        OFFSET -2.68224 19.2634 -4.8768
        CHANNELS 3 Zrotation Xrotation Yrotation
        JOINT rShldr
        {
          OFFSET -8.77824 -1.95073 1.46304
          CHANNELS 3 Zrotation Xrotation Yrotation
          JOINT rForeArm
          {
            OFFSET -28.1742 -1.7115 0.48768
            CHANNELS 3 Zrotation Xrotation Yrotation
            JOINT rHand
            {
              OFFSET -22.5879 0.773209 7.07136
              CHANNELS 3 Zrotation Xrotation Yrotation
              JOINT rThumb1
              {
                OFFSET -1.2192 -0.487915 3.41376
                CHANNELS 3 Zrotation Xrotation Yrotation
                JOINT rThumb2
                {
                  OFFSET -3.37035 -0.52449 3.41376
                  CHANNELS 3 Zrotation Xrotation Yrotation
                  End Site
                  {
                    OFFSET -1.78271 -1.18214 1.43049
                  }
                }
              }
              JOINT rIndex1
              {
                OFFSET -7.75947 0.938293 5.60832
                CHANNELS 3 Zrotation Xrotation Yrotation
                JOINT rIndex2
                {
                  OFFSET -2.54057 -0.884171 1.56538
                  CHANNELS 3 Zrotation Xrotation Yrotation
                  End Site
                  {
                    OFFSET -1.62519 -0.234802 1.16502
                  }
                }
              }
              JOINT rMid1
              {
                OFFSET -8.24714 1.18213 3.41376
                CHANNELS 3 Zrotation Xrotation Yrotation
                JOINT rMid2
                {
                  OFFSET -3.10165 -0.590103 1.0647
                  CHANNELS 3 Zrotation Xrotation Yrotation
                  End Site
                  {
                    OFFSET -2.48547 -0.328903 0.83742
                  }
                }
              }
              JOINT rRing1
              {
                OFFSET -8.82822 0.546677 1.51678
                CHANNELS 3 Zrotation Xrotation Yrotation
                JOINT rRing2
                {
                  OFFSET -2.60934 -0.819778 -0.0198488
                  CHANNELS 3 Zrotation Xrotation Yrotation
                  End Site
                  {
                    OFFSET -2.33842 -0.294052 0.168128
                  }
                }
              }
              JOINT rPinky1
              {
                OFFSET -8.27202 -0.0477905 -0.4584
                CHANNELS 3 Zrotation Xrotation Yrotation
                JOINT rPinky2
                {
                  OFFSET -1.82734 -0.647385 -0.700984
                  CHANNELS 3 Zrotation Xrotation Yrotation
                  End Site
                  {
                    OFFSET -1.69225 -0.51767 -0.607171
                  }
                }
              }
            }
          }
        }
      }
      JOINT lCollar
      {
        OFFSET 2.68224 19.2634 -4.8768
        CHANNELS 3 Zrotation Xrotation Yrotation
        JOINT lShldr
        {
          OFFSET 8.77824 -1.95073 1.46304
          CHANNELS 3 Zrotation Xrotation Yrotation
          JOINT lForeArm
          {
            OFFSET 28.1742 -1.7115 0.48768
            CHANNELS 3 Zrotation Xrotation Yrotation
            JOINT lHand
            {
              OFFSET 22.5879 0.773209 7.07136
              CHANNELS 3 Zrotation Xrotation Yrotation
              JOINT lThumb1
              {
                OFFSET 1.2192 -0.487915 3.41376
                CHANNELS 3 Zrotation Xrotation Yrotation
                JOINT lThumb2
                {
                  OFFSET 3.37035 -0.52449 3.41376
                  CHANNELS 3 Zrotation Xrotation Yrotation
                  End Site
                  {
                    OFFSET 1.78271 -1.18214 1.43049
                  }
                }
              }
              JOINT lIndex1
              {
                OFFSET 7.75947 0.938293 5.60832
                CHANNELS 3 Zrotation Xrotation Yrotation
                JOINT lIndex2
                {
                  OFFSET 2.54057 -0.884171 1.56538
                  CHANNELS 3 Zrotation Xrotation Yrotation
                  End Site
                  {
                    OFFSET 1.62519 -0.234802 1.16502
                  }
                }
              }
              JOINT lMid1
              {
                OFFSET 8.24714 1.18213 3.41376
                CHANNELS 3 Zrotation Xrotation Yrotation
                JOINT lMid2
                {
                  OFFSET 3.10165 -0.590103 1.0647
                  CHANNELS 3 Zrotation Xrotation Yrotation
                  End Site
                  {
                    OFFSET 2.48547 -0.328903 0.83742
                  }
                }
              }
              JOINT lRing1
              {
                OFFSET 8.82822 0.546677 1.51678
                CHANNELS 3 Zrotation Xrotation Yrotation
                JOINT lRing2
                {
                  OFFSET 2.60934 -0.819778 -0.0198488
                  CHANNELS 3 Zrotation Xrotation Yrotation
                  End Site
                  {
                    OFFSET 2.33842 -0.294052 0.168128
                  }
                }
              }
              JOINT lPinky1
              {
                OFFSET 8.27202 -0.0477905 -0.4584
                CHANNELS 3 Zrotation Xrotation Yrotation
                JOINT lPinky2
                {
                  OFFSET 1.82734 -0.647385 -0.700984
                  CHANNELS 3 Zrotation Xrotation Yrotation
                  End Site
                  {
                    OFFSET 1.69225 -0.51767 -0.607171
                  }
                }
              }
            }
          }
        }
      }
    }
  }
  JOINT rButtock
  {
    OFFSET -8.77824 4.35084 1.2192
    CHANNELS 3 Zrotation Xrotation Yrotation
    JOINT rThigh
    {
      OFFSET 0 -1.70687 -2.19456
      CHANNELS 3 Zrotation Xrotation Yrotation
      JOINT rShin
      {
        OFFSET 0 -36.8199 0.73152
        CHANNELS 3 Zrotation Xrotation Yrotation
        JOINT rFoot
        {
          OFFSET 0.73152 -45.1104 -5.12064
          CHANNELS 3 Zrotation Xrotation Yrotation
          End Site
          {
            OFFSET -1.1221 -3.69964 12.103
          }
        }
      }
    }
  }
  JOINT lButtock
  {
    OFFSET 8.77824 4.35084 1.2192
    CHANNELS 3 Zrotation Xrotation Yrotation
    JOINT lThigh
    {
      OFFSET 0 -1.70687 -2.19456
      CHANNELS 3 Zrotation Xrotation Yrotation
      JOINT lShin
      {
        OFFSET 0 -36.8199 0.73152
        CHANNELS 3 Zrotation Xrotation Yrotation
        JOINT lFoot
        {
          OFFSET -0.73152 -45.1104 -5.12064
          CHANNELS 3 Zrotation Xrotation Yrotation
          End Site
          {
            OFFSET 1.1221 -3.69964 12.103
          }
        }
      }
    }
  }
}
MOTION
Frames:	6
Frame Time:	0.03333
-27.570099999999996 67.8452 -83.26740000000001 2.962951 0.002731 8.910615 1.117301 25.415544 174.521118 -5.780119 10.072353 -176.85944 10.434826 27.651728 119.395294 -34.207258 30.589932 -104.921299 -10.421873 -0.543363 5.952643 -165.419918 8.163949 58.310606 -132.60116 55.088693 134.793747 -178.717309 -2.658757 121.785503 -99.532561 -15.998677 83.338691 158.101694 -62.133114 139.981563 -174.856913 -29.339436 73.075194 -136.569336 -17.407858 75.718198 -175.629331 -46.200322 135.65211 -160.452122 66.888405 138.137863 -164.463216 7.387142 150.512097 -3.978283 51.374686 -5.854258 0.795403 -22.298584 -20.139661 -66.929703 71.310303 61.29864 56.579439 77.012435 -33.208547 -135.017564 -9.859835 -150.10455 40.597368 -87.632808 64.742975 -73.311278 37.231053 19.974677 121.137908 -55.568126 -77.215918 -164.541757 -44.369462 -130.441093 -24.792287 -28.936668 -26.509622 6.914006 0.659656 38.833546 -75.445122 -50.844503 -33.932263 165.10495 -58.684212 -139.927008 91.667062 40.605808 -69.929066 158.788687 -10.789251 -123.793377 -89.934071 -70.4988 -91.597511 130.757813 -28.730787 142.535098 99.962833 -53.522359 121.497737 -40.236079 89.15277 15.756659 -3.716386 -0.305739 4.770603 -31.682617 -70.074861 180.0 -89.860803 -59.386186 16.383533 148.488194 10.086769 -38.755871 167.370792 76.509759 11.19816 -158.703162 9.431507 75.498137 94.707847 21.410837 -114.776327 -34.420257 -29.634824 43.166461
-30.927100000000003 68.0709 -84.5131 2.630523 9.792573 9.7185 3.906626 30.407787 -0.0 2.175201 -15.318575 -6.610598 -12.16628 29.284724 -96.381754 47.017959 12.441601 97.311725 -5.828289 -0.59353 11.619602 -154.50941 7.882913 33.882614 -153.2926 12.565975 154.96498 -86.745026 43.782797 60.968505 -29.790423 69.969527 119.187093 -2.735973 -12.838645 -1.779606 2.435369 12.790025 19.247195 -19.553627 -21.890287 -15.59772 -176.311153 -13.094105 129.904693 -11.755211 44.105132 -23.416657 1.18324 -11.156625 1.369897 0.590731 -10.270466 8.613514 13.598219 23.204771 -0.355299 -24.764161 -43.632942 -13.417064 88.141703 75.134017 -51.462444 -170.189688 31.237383 -141.30391 139.193899 44.189073 -146.493008 44.386932 19.534884 -3.449085 -101.516124 -48.640095 121.50261 42.455977 68.477316 -16.406404 -10.049961 -24.632832 -19.024967 2.491718 -3.028589 37.248084 -3.850792 -5.744681 -17.057451 -175.426232 -66.380657 -105.037028 -4.695432 -33.178755 -9.721535 141.247209 -10.394613 -142.82866 78.111806 37.966874 -71.124619 -18.820388 -22.570411 -30.324882 129.639325 45.42712 168.9588 5.530182 -1.350381 -26.810339 34.500009 13.399605 35.923184 -97.329597 -39.491382 170.753837 -97.493648 -37.814402 -58.964119 63.467176 -35.653859 157.750411 17.393154 6.998468 28.725347 -25.029484 -62.398751 152.215307 118.402233 -72.191628 -82.556864 -109.06888 -57.124544 4.830793
-33.5715 68.3004 -85.3776 2.211454 19.773788 10.382572 10.440801 27.438951 -87.023621 12.344406 -3.938586 77.319023 11.100606 30.203373 120.966296 -40.184082 40.25098 -107.238098 1.937681 0.107321 6.339739 -152.069803 -4.185552 -16.718843 -162.679655 -76.153416 173.561669 -21.764247 5.527689 -25.327227 23.52071 68.628517 70.865335 -8.681232 9.182599 -4.552344 -71.780326 22.217729 51.570479 -10.574824 -8.995046 -4.121061 -102.571678 54.802091 56.90077 170.938951 0.928497 101.481533 179.057069 -32.544548 130.827367 92.102315 -70.141166 53.291571 -50.938036 71.341009 85.693231 70.993338 53.389936 -75.402091 -48.473537 -32.297842 -57.046394 -105.502058 -74.553091 -128.093682 -4.700325 -26.515857 6.970744 -55.424587 8.277711 -15.850871 -78.713588 57.594696 -57.928321 20.331234 59.361494 2.004343 174.053938 7.468412 -75.232454 56.87133 -34.871615 -22.522779 171.146334 -46.042581 -107.080299 17.131744 41.526863 -15.477152 124.669986 60.232856 -106.883763 -27.139235 -76.097002 -46.37819 95.311682 46.636668 -91.67849 132.908355 54.784235 -121.581227 136.771601 -22.152315 144.852494 64.678135 -27.51776 6.800176 -4.410778 -2.240621 5.514442 -44.626161 -66.572898 -17.387211 96.48138 58.324607 118.341806 -84.303225 69.265055 179.451916 59.898636 57.727923 53.343886 -103.308743 -24.660075 -95.636674 -100.252867 37.471358 18.874968 20.627132 67.367958 48.646779
-35.4403 68.5424 -86.068 1.987458 31.653959 11.626071 10.701649 27.229455 -4.542373 -1.191271 -14.517051 -6.196045 10.04801 17.426225 56.910108 -43.560532 -2.743202 -63.663024 6.200429 -1.585334 -28.659301 -168.513382 -5.442693 -50.590493 -9.343226 32.246805 9.069252 -119.914303 -6.855056 167.989747 -149.752044 72.047328 -114.803395 -5.74986 -2.97514 -10.908229 2.817945 8.05449 18.000797 12.405357 -57.686559 -4.42322 -176.621255 -10.848245 131.306535 -38.444294 -75.954268 -83.397656 -161.710497 -1.706021 128.497675 -152.053597 -41.980332 138.719159 -64.404472 59.681495 97.617835 -55.730983 -36.862871 -86.037549 -29.772128 -22.905644 -50.508259 43.331175 -39.640503 41.630936 8.885254 34.907087 -11.164368 -57.707846 -15.775206 -48.988636 -178.851594 -9.938042 -26.742309 -171.11491 -1.823733 -135.95296 173.88677 4.138571 -74.703582 98.48389 -19.27252 -23.994707 139.477102 -21.856504 -121.132986 -5.124218 62.431379 4.836595 26.124235 57.212424 -11.090686 70.52273 2.496064 -42.118428 126.738303 49.935011 -134.379371 102.765638 -84.484589 91.135598 4.264023 -22.853677 -12.257484 -80.296323 0.397457 41.399908 -2.724181 -0.84508 3.466779 -57.367126 -66.126323 -162.942413 -82.719451 -6.036249 140.114744 -111.682596 39.795269 39.539175 -135.181024 51.445203 -51.79833 -166.273885 5.973988 -66.921308 -90.069282 41.057132 53.868751 158.729525 -40.722607 -62.894177
-36.4504 68.4933 -86.92530000000001 2.194633 43.755949 12.794218 12.652059 20.265307 -120.901061 10.120547 1.482727 108.111017 -9.818912 23.137126 -103.043072 41.103094 8.223052 89.310643 -4.424046 3.81033 -81.467859 174.56435 3.455678 -64.86858 -154.774238 12.643499 160.550911 153.015314 -6.8408 145.631749 -134.081978 26.354497 27.345847 164.332544 -49.031323 126.356622 116.542795 -40.773619 41.275135 77.142379 -57.119146 29.703964 -18.068926 3.187315 -8.69969 -6.784406 2.813095 30.263513 -16.352124 21.926107 19.651626 162.107779 -3.081393 -175.034458 -113.910258 44.269966 130.862103 -147.088715 68.019177 -168.582141 -139.609235 25.343153 -113.605179 -136.261983 33.037716 -85.314592 0.81327 -1.241128 -1.252453 -112.365051 -77.842739 -49.249027 105.785017 65.699708 133.416539 -6.826689 -12.588754 10.33772 -91.228601 -32.751776 -50.32324 176.505244 -38.42467 -155.457013 34.17689 41.768106 -41.121064 -106.515151 -65.783885 -88.210421 170.731034 -51.692424 -156.851674 -9.227474 -0.829394 62.101364 4.049529 -0.433554 2.259959 -27.92439 7.379496 -29.281255 0.003385 -35.080585 -19.140013 0.174727 14.527412 84.9465 0.04339 -1.644113 -0.02202 -62.437112 -59.266497 54.843285 88.228498 -22.952647 173.018938 153.938166 0.313533 -85.499231 -13.983356 5.951156 20.041416 62.672403 -56.925699 66.586592 101.208272 48.66447 49.335538 62.964458 58.861658 -153.528637
-36.6322 67.926 -88.2169 2.817519 53.145367 12.940161 6.300429 16.854547 159.153462 -3.223879 4.550669 -171.832445 1.839055 10.341627 92.506089 -27.581641 8.388743 -105.310216 -168.632288 -9.8552 -81.800682 158.634155 17.678799 -79.002485 -48.166814 66.560172 48.360725 16.629357 19.7604 48.940341 61.740061 13.474735 -152.817333 -164.010103 38.430255 124.65544 108.112542 -49.092729 31.707854 -151.702696 -38.828321 77.350777 -19.031704 33.47642 9.547387 179.293194 19.69568 106.447945 -8.924434 19.343685 12.481944 79.120221 52.621215 -140.932856 -22.702646 -4.187844 7.661196 -132.708463 11.793471 -161.405355 -133.891849 19.829805 -109.935019 -146.349126 46.353534 -81.63304 157.040216 -5.841604 -161.042477 161.518411 79.896346 -121.042332 -131.689857 3.356704 26.534147 94.305538 72.388543 -59.4682 -9.902818 -10.417336 -21.687523 12.351851 33.486491 5.371869 -13.056525 12.975872 -10.454547 81.573359 29.988149 -46.141043 36.437999 51.060661 -31.343894 -12.855073 2.998373 -36.782927 77.786539 -67.115636 96.647882 -45.715698 37.308529 28.180486 144.999031 -26.59783 165.757183 -166.973046 1.892186 -157.273862 -174.618108 79.169473 -0.0 147.527627 4.640672 -84.010163 -89.790761 0.12496 -36.873531 76.617843 -42.043807 177.943308 -1.112097 3.396878 18.139881 49.977554 -53.949125 -49.369384 -87.875957 24.434465 -179.399966 0.54739 -29.511282 -90.184437
